<svg class="tg-icon-checkbox" pointer-events="none" viewBox="0 0 16 16">
    <path class="tg-checkbox-item tg-checkbox-none" fill="currentColor" d="M0,3 q0,-3 3,-3 h9 q3,0 3,3 v9 q0,3 -3,3 h-9 q-3,0 -3,-3 v-9 zM1,3,v9,q0,2 2,2,h9,q2,0 2,-2,v-9,q0,-2 -2,-2,h-9,q-2,0 -2,2,z" />
    <path class="tg-checkbox-item tg-checkbox-selected" fill="currentColor" d="M0,3 q0,-3 3,-3 h9 q3,0 3,3 v9 q0,3 -3,3 h-9 q-3,0 -3,-3 v-9 zM12,2.5 l-6,8 l-3,-3 l-1,1 l4,4 l7,-9 z" />
    <path class="tg-checkbox-item tg-checkbox-mixed" fill="currentColor" d="M0,3 q0,-3 3,-3 h9 q3,0 3,3 v9 q0,3 -3,3 h-9 q-3,0 -3,-3 v-9 zM2.5,7 v1 h10 v-1 h-10 z" />
</svg>
